<svg xmlns="http://www.w3.org/2000/svg" width="27" height="16" viewBox="0 0 27 16" fill="none">
  <path fill="#8993BE" d="M0 0h27v16H0z"/>
  <path fill="#4F5B93" d="M10.62 10.5c-1.07 0-1.86-.46-2.27-1.25H7.5v2.5h1.11c.47-.8 1.16-1.26 2.01-1.26.86 0 1.52.48 1.88 1.26.22.45.22.95.22 1.48s0 1.03-.22 1.48c-.36.78-1.02 1.26-1.88 1.26-.91 0-1.59-.48-1.88-1.25h-1.11v2.5h1.11c1.18.79 2.34 1.25 3.88 1.25 2.5 0 4.46-1.22 4.46-3.25s-1.96-3.25-4.46-3.25zm-5.62 0H0v2.5h5.62v-2.5zM7.5 0h1.11v3.5h-1.11V0zM10.62 0h1.11v3.5h-1.11V0zM10.62 3.5c-1.07 0-1.86.46-2.27 1.25H7.5V3.5h1.11c.47-.8 1.16-1.26 2.01-1.26 1.04 0 1.86.48 2.27 1.25h1.11v2.5h-1.11c-.41-.79-1.2-1.25-2.27-1.25zm10.75 2.5c-.91 0-1.59.48-1.88 1.25H22v-2.5h-1.11c-1.18-.79-2.34-1.25-3.88-1.25-2.5 0-4.46 1.22-4.46 3.25s1.96 3.25 4.46 3.25c1.54 0 2.7-.46 3.88-1.25H22v-2.5h-1.11c-.41-.79-.98-1.25-1.88-1.25zm5.62 0H27v2.5h-5.62v-2.5z"/>
</svg>
