<svg xmlns="http://www.w3.org/2000/svg" width="27" height="16" viewBox="0 0 27 16" fill="none">
  <path fill="#F29111" d="M0 0h27v16H0z"/>
  <path fill="#FFF" d="M0 0h27v16H0z"/>
  <path fill="#003B5C" d="M0 0h27v16H0z"/>
  <path fill="#000" d="M1.5 1h24v14h-24V1zm2 2v10h20V3H3.5zm3.5 1.5h1v1H7V4.5zm2 0h1v1H9.5V4.5zm2 0h1v1h-1V4.5zm2 0h1v1h-1V4.5zm2 0h1v1h-1V4.5zm2 0h1v1h-1V4.5zm2 0h1v1h-1V4.5zm-2 3h1v1h-1V7.5zm-2 0h1v1h-1V7.5zm-2 0h1v1h-1V7.5zm-2 0h1v1h-1V7.5zm-2 0h1v1h-1V7.5zm-2 0h1v1h-1V7.5zm2 3h1v1h-1v-1zm2 0h1v1h-1v-1zm2 0h1v1h-1v-1zm2 0h1v1h-1v-1zm2 0h1v1h-1v-1z"/>
</svg>
